# xmcd
#
# Track frame offsets: 
#        150
#        18174
#        36367
#        52574
#        70388
#        86913
#        106270
#        124464
#        144098
#        161100
#        181225
#        199438
#        217054
#
# Disc length: 3138 seconds
#
# Revision: 0
# Processed by: cddbd v1.5.1PL2 Copyright (c) Steve Scherf et al.
# Submitted via: ExactAudioCopy v0.95b4
#
DISCID=bb0c400d
DTITLE=PhilliBustas - R.I.P. de M.I.C.
DYEAR=2006
DGENRE=Hip-Hop
TTITLE0=Nen Echte M.C.
TTITLE1=Dood Graag
TTITLE2=Bitch
TTITLE3=Down With This
TTITLE4=Heet Van Den Bik
TTITLE5=Lente (ft. Nupster and Pascalle)
TTITLE6=Anubis
TTITLE7=Toveren (ft. Pascalle)
TTITLE8=Doe Normaal
TTITLE9=Kijk Niet Te Veel Opzij (ft. Lucane and Romina)
TTITLE10=Scheef Schrijven
TTITLE11=Heet Van Den Bik Ragga-Remix (ft. UnDeFiNeD)
TTITLE12=We Willen Werken
EXTD=
EXTT0=
EXTT1=
EXTT2=
EXTT3=
EXTT4=
EXTT5=
EXTT6=
EXTT7=
EXTT8=
EXTT9=
EXTT10=
EXTT11=
EXTT12=
PLAYORDER=
